<svg width="60" height="60" viewBox="0 0 60 60" fill="none" xmlns="http://www.w3.org/2000/svg">
<rect x="16" y="16" width="28" height="28" rx="5" fill="#D9D9D9"/>
<rect x="16" y="16" width="28" height="28" rx="5" fill="url(#paint0_linear_837_5587)"/>
<rect x="16" y="16" width="28" height="28" rx="5" fill="url(#paint1_linear_837_5587)"/>
<g filter="url(#filter0_bd_837_5587)">
<path d="M45.488 12.5165C46.4236 12.2037 47.3143 13.0944 47.0015 14.03L38.828 38.4799C38.4682 39.5564 36.9516 39.5732 36.568 38.5049L32.6491 27.5904C32.5284 27.2542 32.2638 26.9896 31.9276 26.8689L21.0131 22.95C19.9448 22.5664 19.9616 21.0498 21.0381 20.69L45.488 12.5165Z" fill="url(#paint2_radial_837_5587)" fill-opacity="0.4" shape-rendering="crispEdges"/>
<path d="M46.6907 13.9261L38.5173 38.376C38.256 39.1576 37.1549 39.1697 36.8764 38.3942L32.9575 27.4797C32.8037 27.0514 32.4666 26.7143 32.0383 26.5605L21.1238 22.6416C20.3483 22.3631 20.3604 21.262 21.142 21.0007L45.5919 12.8273C46.2712 12.6002 46.9178 13.2468 46.6907 13.9261Z" stroke="url(#paint3_linear_837_5587)" stroke-opacity="0.5" stroke-width="0.655389" shape-rendering="crispEdges"/>
<path d="M46.6907 13.9261L38.5173 38.376C38.256 39.1576 37.1549 39.1697 36.8764 38.3942L32.9575 27.4797C32.8037 27.0514 32.4666 26.7143 32.0383 26.5605L21.1238 22.6416C20.3483 22.3631 20.3604 21.262 21.142 21.0007L45.5919 12.8273C46.2712 12.6002 46.9178 13.2468 46.6907 13.9261Z" stroke="url(#paint4_linear_837_5587)" stroke-opacity="0.1" stroke-width="0.655389" shape-rendering="crispEdges"/>
</g>
<defs>
<filter id="filter0_bd_837_5587" x="5.86869" y="-1.8998" width="55.5492" height="55.5491" filterUnits="userSpaceOnUse" color-interpolation-filters="sRGB">
<feFlood flood-opacity="0" result="BackgroundImageFix"/>
<feGaussianBlur in="BackgroundImageFix" stdDeviation="7.17625"/>
<feComposite in2="SourceAlpha" operator="in" result="effect1_backgroundBlur_837_5587"/>
<feColorMatrix in="SourceAlpha" type="matrix" values="0 0 0 0 0 0 0 0 0 0 0 0 0 0 0 0 0 0 127 0" result="hardAlpha"/>
<feOffset dy="4.78417"/>
<feGaussianBlur stdDeviation="2.39208"/>
<feComposite in2="hardAlpha" operator="out"/>
<feColorMatrix type="matrix" values="0 0 0 0 0.188235 0 0 0 0 0.227451 0 0 0 0 0.94902 0 0 0 0.08 0"/>
<feBlend mode="normal" in2="effect1_backgroundBlur_837_5587" result="effect2_dropShadow_837_5587"/>
<feBlend mode="normal" in="SourceGraphic" in2="effect2_dropShadow_837_5587" result="shape"/>
</filter>
<linearGradient id="paint0_linear_837_5587" x1="30" y1="16" x2="37.7778" y2="40.8889" gradientUnits="userSpaceOnUse">
<stop stop-color="#303AF2"/>
<stop offset="1" stop-color="#303AF2"/>
</linearGradient>
<linearGradient id="paint1_linear_837_5587" x1="30" y1="16" x2="37.7778" y2="40.8889" gradientUnits="userSpaceOnUse">
<stop stop-color="#FF9A2E"/>
<stop offset="1" stop-color="#FF7D00"/>
</linearGradient>
<radialGradient id="paint2_radial_837_5587" cx="0" cy="0" r="1" gradientUnits="userSpaceOnUse" gradientTransform="translate(41.0053 27.3662) rotate(-101.428) scale(24.4604 21.3595)">
<stop stop-color="#D9DBFF"/>
<stop offset="1" stop-color="white"/>
</radialGradient>
<linearGradient id="paint3_linear_837_5587" x1="47.0277" y1="8.37391" x2="42.7626" y2="23.0564" gradientUnits="userSpaceOnUse">
<stop stop-color="white"/>
<stop offset="1" stop-color="white" stop-opacity="0"/>
</linearGradient>
<linearGradient id="paint4_linear_837_5587" x1="42.6002" y1="3.7469" x2="42.7996" y2="33.8792" gradientUnits="userSpaceOnUse">
<stop offset="0.348247" stop-color="#303AF2" stop-opacity="0"/>
<stop offset="1" stop-color="#303AF2"/>
</linearGradient>
</defs>
</svg>
