<svg width="62" height="60" viewBox="0 0 62 60" fill="none" xmlns="http://www.w3.org/2000/svg">
<rect x="13" y="15" width="32" height="32" rx="16" fill="#D9D9D9"/>
<rect x="13" y="15" width="32" height="32" rx="16" fill="url(#paint0_linear_837_5578)"/>
<g filter="url(#filter0_bd_837_5578)">
<path fill-rule="evenodd" clip-rule="evenodd" d="M25.9663 36.5351C25.0102 36.8218 24.1562 35.8586 24.5554 34.9437L33.4292 14.6086C35.4446 9.99027 40.8053 9.63981 43.8834 12.2256C44.5863 12.8161 45.6472 12.9695 46.3398 12.367L48.9086 10.1324C50.5011 8.74717 52.9151 8.91527 54.3002 10.5076C55.6854 12.1 55.5175 14.514 53.925 15.8992L51.3734 18.1188C50.6852 18.7175 50.6861 19.7809 51.1576 20.5618C53.1095 23.7939 52.1145 28.6911 47.5708 30.0541L25.9663 36.5351ZM34.1165 28.0651C34.5783 28.5959 35.3829 28.6519 35.9137 28.1902L41.6805 23.1738C42.2114 22.712 42.2674 21.9074 41.8056 21.3766C41.3439 20.8458 40.5392 20.7898 40.0084 21.2515L34.2416 26.2679C33.7108 26.7297 33.6548 27.5343 34.1165 28.0651Z" fill="url(#paint1_radial_837_5578)" fill-opacity="0.4" shape-rendering="crispEdges"/>
<path d="M25.8456 36.1324C25.8456 36.1324 25.8455 36.1324 25.8455 36.1324C25.2324 36.3163 24.6847 35.6986 24.9407 35.1118C24.9407 35.1118 24.9407 35.1118 24.9407 35.1118L33.8145 14.7767C35.6959 10.4654 40.7066 10.1059 43.613 12.5475C44.4196 13.225 45.7185 13.4646 46.6157 12.6841L49.1845 10.4496C50.6018 9.21673 52.7503 9.36633 53.9831 10.7835C55.2158 12.2007 55.0664 14.3492 53.6491 15.582L51.0975 17.8016C50.2059 18.5772 50.2584 19.8859 50.7978 20.7791C52.6365 23.824 51.6795 28.3827 47.4501 29.6515L25.8456 36.1324ZM33.7994 28.341C34.4135 29.047 35.4836 29.1215 36.1896 28.5074L41.9564 23.491C42.6624 22.8768 42.7369 21.8067 42.1228 21.1007C41.5087 20.3947 40.4385 20.3202 39.7325 20.9343L33.9657 25.9508C33.2597 26.5649 33.1852 27.635 33.7994 28.341Z" stroke="url(#paint2_linear_837_5578)" stroke-opacity="0.5" stroke-width="0.840765" shape-rendering="crispEdges"/>
<path d="M25.8456 36.1324C25.8456 36.1324 25.8455 36.1324 25.8455 36.1324C25.2324 36.3163 24.6847 35.6986 24.9407 35.1118C24.9407 35.1118 24.9407 35.1118 24.9407 35.1118L33.8145 14.7767C35.6959 10.4654 40.7066 10.1059 43.613 12.5475C44.4196 13.225 45.7185 13.4646 46.6157 12.6841L49.1845 10.4496C50.6018 9.21673 52.7503 9.36633 53.9831 10.7835C55.2158 12.2007 55.0664 14.3492 53.6491 15.582L51.0975 17.8016C50.2059 18.5772 50.2584 19.8859 50.7978 20.7791C52.6365 23.824 51.6795 28.3827 47.4501 29.6515L25.8456 36.1324ZM33.7994 28.341C34.4135 29.047 35.4836 29.1215 36.1896 28.5074L41.9564 23.491C42.6624 22.8768 42.7369 21.8067 42.1228 21.1007C41.5087 20.3947 40.4385 20.3202 39.7325 20.9343L33.9657 25.9508C33.2597 26.5649 33.1852 27.635 33.7994 28.341Z" stroke="url(#paint3_linear_837_5578)" stroke-opacity="0.1" stroke-width="0.840765" shape-rendering="crispEdges"/>
</g>
<defs>
<filter id="filter0_bd_837_5578" x="6.04274" y="-9.21797" width="67.6079" height="64.2166" filterUnits="userSpaceOnUse" color-interpolation-filters="sRGB">
<feFlood flood-opacity="0" result="BackgroundImageFix"/>
<feGaussianBlur in="BackgroundImageFix" stdDeviation="9.20605"/>
<feComposite in2="SourceAlpha" operator="in" result="effect1_backgroundBlur_837_5578"/>
<feColorMatrix in="SourceAlpha" type="matrix" values="0 0 0 0 0 0 0 0 0 0 0 0 0 0 0 0 0 0 127 0" result="hardAlpha"/>
<feOffset dy="6.13736"/>
<feGaussianBlur stdDeviation="3.06868"/>
<feComposite in2="hardAlpha" operator="out"/>
<feColorMatrix type="matrix" values="0 0 0 0 0.188235 0 0 0 0 0.227451 0 0 0 0 0.94902 0 0 0 0.08 0"/>
<feBlend mode="normal" in2="effect1_backgroundBlur_837_5578" result="effect2_dropShadow_837_5578"/>
<feBlend mode="normal" in="SourceGraphic" in2="effect2_dropShadow_837_5578" result="shape"/>
</filter>
<linearGradient id="paint0_linear_837_5578" x1="29" y1="15" x2="37.8889" y2="43.4444" gradientUnits="userSpaceOnUse">
<stop stop-color="#303AF2"/>
<stop offset="1" stop-color="#303AF2"/>
</linearGradient>
<radialGradient id="paint1_radial_837_5578" cx="0" cy="0" r="1" gradientUnits="userSpaceOnUse" gradientTransform="translate(37.918 17.991) rotate(98.3634) scale(24.6497 23.0861)">
<stop stop-color="#D9DBFF"/>
<stop offset="1" stop-color="white"/>
</radialGradient>
<linearGradient id="paint2_linear_837_5578" x1="24.1964" y1="39.498" x2="25.7015" y2="22.2034" gradientUnits="userSpaceOnUse">
<stop stop-color="white"/>
<stop offset="1" stop-color="white" stop-opacity="0"/>
</linearGradient>
<linearGradient id="paint3_linear_837_5578" x1="27.3577" y1="43.4297" x2="21.4664" y2="14.9701" gradientUnits="userSpaceOnUse">
<stop offset="0.348247" stop-color="#303AF2" stop-opacity="0"/>
<stop offset="1" stop-color="#303AF2"/>
</linearGradient>
</defs>
</svg>
