<svg width="21" height="20" viewBox="0 0 21 20" fill="none" xmlns="http://www.w3.org/2000/svg">
<path d="M14.3229 7.64656C14.4453 7.64656 14.5677 7.6507 14.6881 7.65693C14.1819 4.98681 11.4038 2.94531 8.05115 2.94531C4.34161 2.94531 1.33331 5.44739 1.33331 8.53452C1.33331 10.2171 2.23788 11.7337 3.65489 12.7586C3.71333 12.7998 3.761 12.8546 3.79386 12.9181C3.82672 12.9817 3.84381 13.0522 3.84369 13.1237C3.84369 13.1735 3.83331 13.2192 3.82086 13.2669C3.70676 13.688 3.52626 14.3623 3.51796 14.3934C3.50344 14.4474 3.48269 14.5013 3.48269 14.5573C3.48269 14.6797 3.58227 14.7814 3.70676 14.7814C3.75447 14.7814 3.79389 14.7627 3.83539 14.7399L5.30634 13.8914C5.4163 13.8271 5.53456 13.7876 5.66319 13.7876C5.72958 13.7876 5.79597 13.798 5.86028 13.8167C6.547 14.0138 7.28767 14.1237 8.05323 14.1237C8.17771 14.1237 8.30012 14.1217 8.42252 14.1154C8.27522 13.6797 8.19638 13.2212 8.19638 12.7461C8.19638 9.92871 10.9391 7.64656 14.3229 7.64656V7.64656ZM10.2918 5.85195C10.7856 5.85195 11.1881 6.25237 11.1881 6.74614C11.1881 7.23992 10.7877 7.64033 10.2918 7.64033C9.79804 7.64033 9.39555 7.23992 9.39555 6.74614C9.39555 6.25237 9.79804 5.85195 10.2918 5.85195ZM5.81256 7.64033C5.31879 7.64033 4.9163 7.23992 4.9163 6.74614C4.9163 6.25237 5.31671 5.85195 5.81256 5.85195C6.30841 5.85195 6.70883 6.25237 6.70883 6.74614C6.70883 7.23992 6.30634 7.64033 5.81256 7.64033ZM17.9868 16.2627C19.1673 15.408 19.9204 14.1466 19.9204 12.742C19.9204 10.1694 17.4142 8.08431 14.3209 8.08431C11.2296 8.08431 8.72128 10.1694 8.72128 12.742C8.72128 15.3146 11.2275 17.3997 14.3209 17.3997C14.9599 17.3997 15.5781 17.3084 16.1487 17.1445C16.2026 17.1279 16.2565 17.1196 16.3126 17.1196C16.4204 17.1196 16.518 17.1528 16.6092 17.2046L17.8354 17.91C17.8707 17.9308 17.9038 17.9453 17.9433 17.9453C17.9679 17.9455 17.9923 17.9408 18.015 17.9316C18.0378 17.9223 18.0586 17.9087 18.076 17.8914C18.0933 17.8739 18.107 17.8531 18.1163 17.8304C18.1255 17.8076 18.1302 17.7832 18.13 17.7586C18.13 17.7129 18.1113 17.6673 18.1009 17.6217C18.0947 17.5968 17.9433 17.0345 17.8478 16.6818C17.8375 16.6424 17.8292 16.603 17.8292 16.5636C17.8312 16.4412 17.8935 16.3312 17.9868 16.2627V16.2627ZM12.4578 11.9993C12.0449 11.9993 11.7109 11.6652 11.7109 11.2544C11.7109 10.8437 12.0449 10.5096 12.4578 10.5096C12.8707 10.5096 13.2047 10.8437 13.2047 11.2544C13.2047 11.6652 12.8686 11.9993 12.4578 11.9993ZM16.1902 11.9993C15.7773 11.9993 15.4433 11.6652 15.4433 11.2544C15.4433 10.8437 15.7773 10.5096 16.1902 10.5096C16.603 10.5096 16.937 10.8437 16.937 11.2544C16.9361 11.452 16.857 11.6412 16.7171 11.7807C16.5772 11.9203 16.3877 11.9988 16.1902 11.9993V11.9993Z" fill="#4CBF69"/>
</svg>
