<svg width="15" height="14" viewBox="0 0 15 14" fill="none" xmlns="http://www.w3.org/2000/svg">
<path d="M4.47115 1.45319C4.22223 1.16715 3.80367 1.07045 3.45399 1.27515C2.85254 1.62724 1.66669 2.52529 1.66669 4.14893C1.66669 5.22239 2.06504 6.24715 2.64181 7.18394C3.21886 8.12119 3.98551 8.98819 4.74837 9.75104C5.51122 10.5139 6.3782 11.2805 7.31544 11.8576C8.25222 12.4343 9.27696 12.8327 10.3504 12.8327C11.9741 12.8327 12.8722 11.6469 13.2243 11.0454C13.429 10.6957 13.3323 10.2772 13.0462 10.0283C12.7429 9.76427 12.2242 9.34363 11.5157 8.8793C10.9774 8.5265 10.4802 8.25529 10.1397 8.08166C9.73867 7.8772 9.26571 8.01279 9.0139 8.36533L8.63479 8.89609C8.54024 9.02846 8.37562 9.05143 8.2623 8.97109C7.88788 8.70565 7.33197 8.27677 6.7773 7.72211C6.22264 7.16744 5.79376 6.61153 5.52832 6.23711C5.44798 6.12379 5.47095 5.95918 5.60333 5.86463L6.13409 5.48551C6.48663 5.2337 6.62221 4.76074 6.41775 4.35972C6.24412 4.01918 5.97292 3.52201 5.62016 2.98374C5.15583 2.27523 4.73515 1.75655 4.47115 1.45319Z" fill="#86909C"/>
</svg>
